<svg width="72" height="72" viewBox="0 0 72 72" fill="none" xmlns="http://www.w3.org/2000/svg">
<path d="M37.2631 41.9832H39.6135C39.6135 41.9832 39.7417 33.758 45.6816 27.9897L44.9979 27.3701C44.9979 27.3701 41.6219 30.532 39.3143 35.0612L39.0152 27.3701H37.7973L37.4981 35.0612C35.1905 30.532 31.8145 27.3701 31.8145 27.3701L31.1309 27.9897C37.0708 33.758 37.199 41.9832 37.199 41.9832" fill="#008848"/>
<path d="M45.6597 14.5305C45.7879 24.2084 31.0875 24.2084 31.2157 14.5305C31.0875 4.85248 45.7879 4.85248 45.6597 14.5305Z" fill="#ED1C24"/>
<path d="M38.4585 27.3488C38.5867 37.0268 23.8863 37.0268 24.0145 27.3488C23.8863 17.6708 38.5867 17.6708 38.4585 27.3488Z" fill="#ED1C24"/>
<path d="M52.8588 27.3488C52.987 37.0268 38.2867 37.0268 38.4149 27.3488C38.2867 17.6708 52.987 17.6708 52.8588 27.3488Z" fill="#ED1C24"/>
<path d="M64.3124 49.5892L64.1201 49.3969C61.5775 46.8759 57.7742 46.0214 54.3982 47.2605L47.5395 49.7601C47.3899 48.7346 46.9198 47.7946 46.1934 47.0468C45.296 46.1495 44.0353 45.6154 42.7533 45.6154H36.4287C33.9074 43.0945 30.446 41.6631 26.8778 41.6631H19.6345C19.0575 39.4198 17.049 37.7534 14.656 37.7534H9.80571C8.73737 37.7534 7.86133 38.6293 7.86133 39.6976V62.3009C7.86133 63.3691 8.73737 64.245 9.80571 64.245H14.656C17.0063 64.245 18.9935 62.6427 19.5917 60.4636L30.1897 64.5655C32.134 65.3346 34.1852 65.7191 36.3005 65.7191C39.0355 65.7191 41.7705 65.0355 44.2063 63.7536L63.7355 53.4134C64.4192 53.0502 64.868 52.3879 64.9748 51.6401C65.0816 50.8924 64.8466 50.1233 64.291 49.5678L64.3124 49.5892ZM11.7287 41.6417H14.6346C15.3397 41.6417 15.938 42.2185 15.938 42.9449V43.6072V59.0535C15.938 59.7585 15.3611 60.3567 14.656 60.3567H11.7501V41.6203L11.7287 41.6417ZM19.8054 45.5514H26.8778C29.6554 45.5514 32.305 46.7477 34.1425 48.8414C34.5058 49.2687 35.0399 49.5037 35.5954 49.5037H42.7747C43.0311 49.5037 43.2875 49.6105 43.4798 49.8028C43.6721 49.9951 43.7789 50.2301 43.7789 50.5078C43.7789 50.7856 43.6721 51.0206 43.4798 51.2129C43.2875 51.4051 43.0311 51.512 42.7747 51.512H29.1854C28.0743 51.512 27.241 52.3452 27.241 53.4561C27.241 54.567 28.0743 55.3789 29.1854 55.3789H42.7747C43.6293 55.3789 44.4627 55.1225 45.1891 54.7166C45.296 54.7166 45.4028 54.7166 45.531 54.6739L55.7657 50.9351C57.1546 50.4224 58.6502 50.5078 59.9322 51.1274L42.4328 60.3995C39.0996 62.1727 35.1467 62.4077 31.6212 61.0404L19.8267 56.4684V45.6154L19.8054 45.5514Z" fill="#ED1C24"/>
</svg>
